<mxfile host="app.diagrams.net" modified="2022-05-23T12:58:40.392Z" agent="5.0 (Windows)" etag="yLb6EgPSIPT3PUZlrS7W" version="18.1.1" type="github">
  <diagram id="vIzVMyiabT15ts59GRQ8" name="Page-1">
    <mxGraphModel dx="1578" dy="784" grid="1" gridSize="10" guides="1" tooltips="1" connect="1" arrows="1" fold="1" page="1" pageScale="1" pageWidth="850" pageHeight="1100" math="0" shadow="0">
      <root>
        <mxCell id="0" />
        <mxCell id="1" parent="0" />
        <mxCell id="shI915pPz38To5PjgWUX-1" value="Suspended" style="rounded=1;whiteSpace=wrap;html=1;fillColor=#f5f5f5;fontColor=#333333;strokeColor=#666666;strokeWidth=2;fontStyle=1;fontSize=17;" vertex="1" parent="1">
          <mxGeometry x="230" y="140" width="180" height="80" as="geometry" />
        </mxCell>
        <mxCell id="shI915pPz38To5PjgWUX-2" value="Ready" style="rounded=1;whiteSpace=wrap;html=1;fillColor=#d5e8d4;strokeColor=#82b366;strokeWidth=2;fontStyle=1;fontSize=17;" vertex="1" parent="1">
          <mxGeometry x="240" y="300" width="170" height="80" as="geometry" />
        </mxCell>
        <mxCell id="shI915pPz38To5PjgWUX-3" value="Blocked" style="rounded=1;whiteSpace=wrap;html=1;fillColor=#fff2cc;strokeColor=#d6b656;strokeWidth=2;fontStyle=1;fontSize=17;" vertex="1" parent="1">
          <mxGeometry x="240" y="480" width="170" height="90" as="geometry" />
        </mxCell>
        <mxCell id="shI915pPz38To5PjgWUX-4" value="Running " style="rounded=1;whiteSpace=wrap;html=1;fillColor=#cdeb8b;strokeColor=#36393d;strokeWidth=2;fontStyle=1;fontSize=17;" vertex="1" parent="1">
          <mxGeometry x="510" y="300" width="180" height="70" as="geometry" />
        </mxCell>
      </root>
    </mxGraphModel>
  </diagram>
</mxfile>
